<svg width="1080" height="1080" viewBox="0 0 1080 1080" fill="none" xmlns="http://www.w3.org/2000/svg">
<path fill-rule="evenodd" clip-rule="evenodd" d="M540 1080C838.234 1080 1080 838.234 1080 540C1080 241.766 838.234 0 540 0C241.766 0 0 241.766 0 540C0 838.234 241.766 1080 540 1080ZM848.948 377.514C869.504 413.697 882.834 452.615 888.615 492.658C894.878 535.273 892.469 579.015 881.228 621.631C869.665 666.499 848.627 709.436 818.435 747.549C787.119 787.271 746.649 820.881 698.149 845.164C693.652 847.416 689.156 849.506 684.498 851.597C679.843 853.687 675.187 855.616 670.532 857.545L670.526 857.547C665.869 859.477 661.051 861.246 656.234 863.015C651.416 864.784 646.598 866.392 641.619 867.839C641.527 867.932 641.488 867.971 641.441 867.988C641.406 868 641.366 868 641.298 868L619.297 784.859L583.966 651.382L580.593 652.347L577.221 653.312C576.096 653.473 574.972 653.794 573.848 654.116C572.724 654.277 571.6 654.598 570.476 654.92L538.999 662.8L557.146 741.599L503.026 755.269L487.769 675.665L378.243 703.325L369.892 628.225L419.034 615.842L384.988 386.52L344.357 396.651L339.218 349.693L421.604 329.109L410.041 268.642C385.47 280.06 362.986 294.533 343.073 311.258C322.677 328.304 304.69 348.085 289.916 369.956C274.498 392.309 262.293 417.074 253.782 443.448C244.949 470.787 240.292 500.216 240.773 530.771C240.934 547.013 242.701 563.255 245.912 579.176C249.124 595.579 253.942 611.5 260.366 626.938C266.79 642.698 274.98 657.975 284.616 672.61C294.573 687.565 306.136 701.717 319.305 714.743L347.89 672.127L358.972 793.221L247.84 821.364L277.871 776.657C261.811 759.611 247.84 741.439 235.956 722.141C224.393 703.486 215.078 683.867 207.691 663.765C200.464 644.145 195.325 624.204 192.113 603.781C188.901 584 187.616 563.899 188.098 543.797C188.741 523.212 190.989 503.111 195.164 483.652C199.179 464.676 204.8 446.343 211.866 428.653C218.772 411.446 226.962 394.882 236.598 378.961C245.912 363.523 256.672 348.728 268.396 334.737C277.871 323.48 287.988 313.027 298.588 303.217C309.026 293.408 319.947 284.402 331.51 276.2C342.912 267.999 354.635 260.44 366.68 253.525C378.725 246.771 391.091 240.66 403.938 235.192C405.303 234.63 406.708 234.067 408.113 233.504C409.519 232.941 410.924 232.378 412.289 231.815C412.926 231.567 413.555 231.319 414.18 231.073C416.391 230.201 418.547 229.351 420.801 228.599C423.531 227.473 426.422 226.508 429.312 225.544C430.758 225.061 432.203 224.619 433.648 224.177C435.094 223.734 436.539 223.292 437.984 222.81L460.468 319.46L484.075 313.509C484.477 313.429 484.918 313.308 485.36 313.188C485.802 313.067 486.243 312.947 486.645 312.866C487.046 312.786 487.488 312.665 487.93 312.544C488.371 312.424 488.813 312.303 489.214 312.223C489.757 312.132 490.248 311.991 490.717 311.856C491.082 311.751 491.433 311.65 491.784 311.58C492.587 311.258 493.39 311.097 494.193 310.936H494.353L483.594 270.572L520.691 261.245L533.217 302.896C535.466 302.574 537.714 302.252 539.802 301.931C541.89 301.609 543.977 301.288 545.905 301.127C547.672 300.832 549.439 300.672 551.083 300.524L551.525 300.483C552.679 300.273 553.832 300.201 554.941 300.13C555.53 300.093 556.107 300.057 556.664 300.001C560.84 299.679 564.855 299.84 569.03 300.162C573.045 300.644 577.221 301.288 581.235 302.252C585.411 303.217 589.426 304.504 593.441 306.112C597.456 307.72 601.471 309.65 605.485 311.901C605.807 312.062 606.128 312.263 606.449 312.464C606.77 312.665 607.091 312.866 607.413 313.027C607.734 313.188 608.055 313.389 608.376 313.59C608.697 313.791 609.018 313.992 609.34 314.153C609.661 314.314 609.942 314.515 610.223 314.716C610.504 314.917 610.785 315.118 611.106 315.278C611.428 315.52 611.709 315.721 611.99 315.922C612.271 316.123 612.552 316.324 612.873 316.565C615.924 318.656 618.815 321.068 621.545 323.48C624.275 326.053 626.684 328.626 628.932 331.521C631.181 334.415 633.268 337.471 635.035 340.687C636.801 343.904 638.407 347.281 639.853 350.979C642.583 358.055 644.189 364.809 644.51 371.403C644.992 378.157 644.028 384.59 641.941 390.862C639.853 397.133 636.48 403.244 631.823 409.034C627.166 414.984 621.063 420.612 613.836 425.919C625.881 426.723 636.802 428.653 646.758 431.709C656.876 434.764 665.869 438.945 673.899 444.252C681.929 449.72 689.156 456.152 695.258 463.872C701.361 471.752 706.66 480.757 710.836 491.21C713.245 497.321 715.172 503.271 716.617 509.221C718.063 515.172 719.026 521.122 719.347 527.072C719.669 533.022 719.508 538.972 718.705 544.762C717.902 550.551 716.617 556.34 714.69 562.13C712.763 567.919 710.354 573.387 707.624 578.533C704.733 583.679 701.521 588.664 697.828 593.328C694.134 597.991 690.119 602.333 685.462 606.354C680.805 610.374 675.826 614.073 670.366 617.45C669.89 617.736 669.408 618.028 668.92 618.324C666.936 619.526 664.848 620.791 662.657 621.953C659.927 623.561 657.036 625.008 653.985 626.456C650.936 627.902 647.727 629.348 644.518 630.794L644.51 630.798C641.301 632.083 637.771 633.529 634.241 634.975L634.232 634.979L672.935 762.023C710.033 741.921 741.188 715.065 765.599 684.028C789.206 653.955 806.069 620.345 815.865 585.287C825.34 551.837 828.231 517.262 824.537 483.491C821.165 451.328 811.85 420.13 796.754 390.862C789.206 376.067 780.374 362.397 770.577 349.693C761.102 337.31 750.503 325.892 739.101 315.439C728.02 305.147 715.975 295.981 703.288 287.618C690.922 279.417 677.753 272.341 663.942 266.069L647.561 291.799L622.348 231.815L697.667 213L684.659 233.424C701.04 240.178 716.939 248.219 732.035 257.385C747.452 266.712 762.066 277.326 775.877 289.066C790.009 301.127 803.178 314.474 815.223 328.948C827.749 343.904 838.991 360.146 848.948 377.514ZM471.228 364.809L486.805 432.352L512.822 426.241C517.319 425.115 521.333 423.829 525.188 422.542C528.881 421.256 532.414 419.808 535.466 418.361C538.517 416.753 541.247 415.145 543.656 413.536C546.065 411.767 547.992 410.159 549.759 408.23C551.365 406.3 552.81 404.37 553.774 402.119C554.898 399.867 555.54 397.455 555.861 394.882C556.183 392.309 556.183 389.575 555.861 386.68C555.54 383.786 554.898 380.73 553.934 377.514C552.971 374.619 552.007 372.046 550.722 369.634C549.598 367.383 548.153 365.292 546.547 363.523C544.941 361.754 543.174 360.146 541.247 359.02C539.32 357.894 537.232 356.93 534.984 356.286C532.736 355.643 530.166 355.161 527.275 355C524.385 354.839 521.173 354.839 517.64 355.161C514.107 355.321 510.252 355.804 506.077 356.608C502.557 357.15 498.81 358.035 494.834 358.974C494.093 359.149 493.344 359.326 492.587 359.503L471.228 364.809ZM609.179 548.3C610.303 545.244 610.946 541.867 611.267 538.329C611.427 534.791 611.267 530.932 610.785 527.072C610.143 523.052 609.179 518.71 607.734 514.207C606.128 509.543 604.522 505.201 602.595 501.502C600.828 497.804 598.58 494.587 596.331 491.693C594.083 488.798 591.514 486.386 588.783 484.456C586.053 482.526 583.163 480.918 579.951 479.792C576.899 478.667 573.366 477.863 569.512 477.38C565.658 476.898 561.643 476.737 557.146 476.898C552.65 477.058 547.992 477.541 542.853 478.345C537.714 479.149 532.414 480.275 526.633 481.722L499.653 488.476L523.1 589.629L552.328 582.232C558.913 580.623 565.015 578.854 570.476 576.925C575.936 574.995 580.914 572.904 585.25 570.814C589.586 568.562 593.28 566.472 596.492 564.059C599.704 561.647 602.273 559.235 604.361 556.662C606.449 554.25 608.055 551.355 609.179 548.3Z" fill="url(#paint0_linear_85_5393)"/>
<defs>
<linearGradient id="paint0_linear_85_5393" x1="540.036" y1="0.140402" x2="643.994" y2="1039.48" gradientUnits="userSpaceOnUse">
<stop stop-color="#64CCC9"/>
<stop offset="1" stop-color="#00A3E0"/>
<stop offset="1" stop-color="#00A3E0"/>
</linearGradient>
</defs>
</svg>
