<svg xmlns:xlink="http://www.w3.org/1999/xlink" xmlns="http://www.w3.org/2000/svg" class="recharts-surface" width="838" height="346" viewBox="0 0 838 346" version="1.1"><defs><clipPath id="recharts1-clip"><rect x="0" y="5" height="306" width="838"></rect></clipPath><linearGradient id="gradient" x1="0" y1="0" x2="0" y2="1"><stop offset="5%" stop-color="#00E7B0" stop-opacity="0.34"></stop><stop offset="100%" stop-color="#0C8B6C" stop-opacity="0"></stop></linearGradient></defs><defs><linearGradient id="gradient" x1="0" y1="0" x2="0" y2="1"><stop offset="5%" stop-color="#00E7B0" stop-opacity="0.34"></stop><stop offset="100%" stop-color="#0C8B6C" stop-opacity="0"></stop></linearGradient></defs><g class="recharts-layer recharts-cartesian-axis recharts-xAxis xAxis"><g class="recharts-cartesian-axis-ticks"><g class="recharts-layer recharts-cartesian-axis-tick"><text orientation="bottom" width="838" height="30" type="category" x="104.75" y="319" stroke="none" fill="#666666" class="recharts-text recharts-cartesian-axis-tick-value" text-anchor="middle"><tspan x="104.75" dy="0.71em" fill="#666666">03:00 AM</tspan></text></g><g class="recharts-layer recharts-cartesian-axis-tick"><text orientation="bottom" width="838" height="30" type="category" x="209.5" y="319" stroke="none" fill="#666666" class="recharts-text recharts-cartesian-axis-tick-value" text-anchor="middle"><tspan x="209.5" dy="0.71em" fill="#666666">06:00 AM</tspan></text></g><g class="recharts-layer recharts-cartesian-axis-tick"><text orientation="bottom" width="838" height="30" type="category" x="314.25" y="319" stroke="none" fill="#666666" class="recharts-text recharts-cartesian-axis-tick-value" text-anchor="middle"><tspan x="314.25" dy="0.71em" fill="#666666">09:00 AM</tspan></text></g><g class="recharts-layer recharts-cartesian-axis-tick"><text orientation="bottom" width="838" height="30" type="category" x="419" y="319" stroke="none" fill="#666666" class="recharts-text recharts-cartesian-axis-tick-value" text-anchor="middle"><tspan x="419" dy="0.71em" fill="#666666">12:00 PM</tspan></text></g><g class="recharts-layer recharts-cartesian-axis-tick"><text orientation="bottom" width="838" height="30" type="category" x="523.75" y="319" stroke="none" fill="#666666" class="recharts-text recharts-cartesian-axis-tick-value" text-anchor="middle"><tspan x="523.75" dy="0.71em" fill="#666666">03:00 PM</tspan></text></g><g class="recharts-layer recharts-cartesian-axis-tick"><text orientation="bottom" width="838" height="30" type="category" x="628.5" y="319" stroke="none" fill="#666666" class="recharts-text recharts-cartesian-axis-tick-value" text-anchor="middle"><tspan x="628.5" dy="0.71em" fill="#666666">06:00 PM</tspan></text></g><g class="recharts-layer recharts-cartesian-axis-tick"><text orientation="bottom" width="838" height="30" type="category" x="733.25" y="319" stroke="none" fill="#666666" class="recharts-text recharts-cartesian-axis-tick-value" text-anchor="middle"><tspan x="733.25" dy="0.71em" fill="#666666">09:00 PM</tspan></text></g><g class="recharts-layer recharts-cartesian-axis-tick"><text orientation="bottom" width="838" height="30" type="category" x="809.0546875" y="319" stroke="none" fill="#666666" class="recharts-text recharts-cartesian-axis-tick-value" text-anchor="middle"><tspan x="809.0546875" dy="0.71em" fill="#666666">11:09 PM</tspan></text></g></g></g><g class="recharts-layer recharts-area"><g class="recharts-layer"><path fill="url(&quot;#gradient&quot;)" stroke-width="2px" fill-opacity="0.6" points="[object Object],[object Object],[object Object],[object Object],[object Object],[object Object],[object Object],[object Object],[object Object],[object Object],[object Object],[object Object],[object Object],[object Object],[object Object],[object Object],[object Object],[object Object],[object Object],[object Object],[object Object],[object Object],[object Object],[object Object],[object Object]" width="838" height="306" type="linear" stroke="none" class="recharts-curve recharts-area-area" d="M0,275.22166438433555L34.916666666666664,302.72260301350707L69.83333333333333,259.887372577692L104.75,235.50917716879306L139.66666666666666,233.82693326597328L174.58333333333331,228.41773868830765L209.5,228.26387022569742L244.41666666666666,216.70819447884733L279.3333333333333,217.65991618989653L314.25,230.39345973501122L349.16666666666663,239.36314422573327L384.0833333333333,237.8181900509224L419,234.38199802923998L453.91666666666663,229.26169424921108L488.8333333333333,177.51480208127688L523.75,103.92781286265092L558.6666666666666,100.05659195780325L593.5833333333333,120.5314161671102L628.5,116.6313293073745L663.4166666666666,63.48728922320614L698.3333333333333,96.78341216083751L733.25,97.54195119458942L768.1666666666666,94.85129696781257L803.0833333333333,93.40419497094159L838,122.09600000000029L838,311L803.0833333333333,311L768.1666666666666,311L733.25,311L698.3333333333333,311L663.4166666666666,311L628.5,311L593.5833333333333,311L558.6666666666666,311L523.75,311L488.8333333333333,311L453.91666666666663,311L419,311L384.0833333333333,311L349.16666666666663,311L314.25,311L279.3333333333333,311L244.41666666666666,311L209.5,311L174.58333333333331,311L139.66666666666666,311L104.75,311L69.83333333333333,311L34.916666666666664,311L0,311Z"></path><path type="linear" stroke="#31D0AA" fill="none" stroke-width="2px" fill-opacity="0.6" points="[object Object],[object Object],[object Object],[object Object],[object Object],[object Object],[object Object],[object Object],[object Object],[object Object],[object Object],[object Object],[object Object],[object Object],[object Object],[object Object],[object Object],[object Object],[object Object],[object Object],[object Object],[object Object],[object Object],[object Object],[object Object]" width="838" height="306" class="recharts-curve recharts-area-curve" d="M0,275.22166438433555L34.916666666666664,302.72260301350707L69.83333333333333,259.887372577692L104.75,235.50917716879306L139.66666666666666,233.82693326597328L174.58333333333331,228.41773868830765L209.5,228.26387022569742L244.41666666666666,216.70819447884733L279.3333333333333,217.65991618989653L314.25,230.39345973501122L349.16666666666663,239.36314422573327L384.0833333333333,237.8181900509224L419,234.38199802923998L453.91666666666663,229.26169424921108L488.8333333333333,177.51480208127688L523.75,103.92781286265092L558.6666666666666,100.05659195780325L593.5833333333333,120.5314161671102L628.5,116.6313293073745L663.4166666666666,63.48728922320614L698.3333333333333,96.78341216083751L733.25,97.54195119458942L768.1666666666666,94.85129696781257L803.0833333333333,93.40419497094159L838,122.09600000000029"></path></g></g></svg>